<svg width="1532" height="423" viewBox="0 0 1532 423" fill="none" xmlns="http://www.w3.org/2000/svg">
<path d="M428.074 184.842C422.924 177.738 416.164 171.956 408.348 167.969C400.532 163.981 391.883 161.902 383.108 161.902H164.366C155.594 161.904 146.947 163.983 139.133 167.971C131.319 171.958 124.561 177.74 119.412 184.842L10.6699 334.818C-15.9494 371.537 10.2955 422.956 55.6319 422.956H491.843C537.194 422.956 563.428 371.537 536.805 334.818L428.074 184.842Z" fill="url(#paint0_linear_204_3)"/>
<path d="M428.074 22.9396C422.924 15.8359 416.164 10.0536 408.348 6.06623C400.532 2.07889 391.883 4.29303e-05 383.108 0L164.366 0C155.594 0.00151524 146.947 2.08108 139.133 6.06837C131.319 10.0557 124.561 15.8372 119.412 22.9396L10.6699 172.915C-15.9494 209.634 10.2955 261.05 55.6319 261.05H491.843C537.194 261.05 563.428 209.634 536.805 172.915L428.074 22.9396Z" fill="url(#paint1_linear_204_3)"/>
<path d="M736.793 88.1387L645.562 337.655H686.56L707.841 277.409H808.913L830.187 337.655H871.54L780.287 88.1387H736.793ZM718.907 246.05L758.385 134.336L797.837 246.05H718.907Z" fill="#0F0F0F"/>
<path d="M1038.35 168.704C1025.28 160.631 1010.19 156.592 993.08 156.587C977.872 156.587 965.278 159.735 955.298 166.031C945.318 172.328 937.477 179.635 931.775 187.953V81.0225H892.566V337.655H931.775V311.279C937.951 320.787 946.268 328.274 956.725 333.739C967.181 339.205 979.3 341.938 993.08 341.938C1010.19 341.938 1025.28 337.957 1038.35 329.996C1051.42 322.035 1061.69 311.044 1069.18 297.024C1076.67 283.009 1080.41 267.208 1080.41 249.622C1080.41 231.798 1076.67 215.877 1069.18 201.859C1061.69 187.842 1051.42 176.79 1038.35 168.704ZM1033.55 279.733C1029.12 288.19 1022.45 295.274 1014.29 300.221C1006.09 305.212 996.644 307.708 985.953 307.708C975.262 307.708 965.816 305.212 957.616 300.221C949.452 295.27 942.797 288.183 938.367 279.726C933.733 271.056 931.415 260.898 931.415 249.251C931.415 237.604 933.733 227.392 938.367 218.615C943.001 209.825 949.417 202.994 957.616 198.12C965.814 193.246 975.259 190.81 985.953 190.813C996.644 190.813 1006.09 193.248 1014.29 198.12C1022.48 202.991 1028.91 209.879 1033.55 218.783C1038.18 227.695 1040.5 237.973 1040.5 249.618C1040.49 261.02 1038.17 271.059 1033.55 279.733Z" fill="#0F0F0F"/>
<path d="M1236.34 168.172C1222.43 160.453 1206.57 156.591 1188.76 156.586C1171.41 156.586 1155.67 160.448 1141.53 168.172C1127.6 175.701 1116.02 186.922 1108.05 200.605C1099.85 214.508 1095.75 230.729 1095.75 249.269C1095.75 267.57 1099.85 283.729 1108.05 297.746C1116.24 311.764 1127.35 322.635 1141.36 330.359C1155.38 338.078 1171.18 341.94 1188.77 341.945C1206.35 341.95 1222.16 338.088 1236.17 330.359C1250.19 322.64 1261.3 311.769 1269.49 297.746C1277.69 283.724 1281.79 267.565 1281.79 249.269C1281.79 230.737 1277.69 214.516 1269.49 200.605C1261.29 186.695 1250.24 175.884 1236.34 168.172ZM1234.03 281.878C1229.28 290.555 1222.93 297.089 1214.96 301.479C1206.99 305.868 1198.25 308.067 1188.75 308.074C1179.24 308.074 1170.51 305.876 1162.55 301.479C1154.59 297.081 1148.24 290.548 1143.49 281.878C1138.73 273.206 1136.36 262.334 1136.38 249.262C1136.4 236.19 1138.83 225.319 1143.69 216.649C1148.55 207.98 1154.97 201.445 1162.93 197.045C1170.89 192.645 1179.63 190.448 1189.13 190.453C1198.17 190.397 1207.06 192.667 1214.96 197.045C1222.92 201.445 1229.28 207.98 1234.03 216.649C1238.79 225.319 1241.16 236.19 1241.15 249.262C1241.15 262.331 1238.78 273.203 1234.03 281.878Z" fill="#0F0F0F"/>
<path d="M1462.5 160.865H1415.8L1344.16 235.909V81.0225H1304.96V337.655H1344.16V279.55L1364.42 259.231L1425.07 337.655H1473.55L1388.96 234.622L1462.5 160.865Z" fill="#0F0F0F"/>
<path d="M1530.57 160.866H1491.36V337.655H1530.57V160.866Z" fill="#0F0F0F"/>
<path d="M1532 87.083H1490.3V129.499H1532V87.083Z" fill="#0F0F0F"/>
<defs>
<linearGradient id="paint0_linear_204_3" x1="273.737" y1="422.956" x2="273.737" y2="161.902" gradientUnits="userSpaceOnUse">
<stop stop-color="#FF87EA"/>
<stop offset="1" stop-color="#9333EA"/>
</linearGradient>
<linearGradient id="paint1_linear_204_3" x1="273.737" y1="261.05" x2="273.737" y2="0" gradientUnits="userSpaceOnUse">
<stop stop-color="#FF87EA"/>
<stop offset="1" stop-color="#9333EA"/>
</linearGradient>
</defs>
</svg>
